<svg xmlns="http://www.w3.org/2000/svg" viewBox="0 0 120 120" role="img" aria-label="Infinity Prospect">
  <defs>
    <linearGradient id="g" x1="0" y1="0" x2="1" y2="1"><stop offset="0" stop-color="#7b3cff"/><stop offset="1" stop-color="#c45cff"/></linearGradient>
  </defs>
  <rect width="120" height="120" rx="28" fill="#0b0a10"/>
  <path d="M18 60c0-18 15-33 34-33 11 0 18 5 28 15 10-10 17-15 28-15 19 0 34 15 34 33s-15 33-34 33c-11 0-18-5-28-15-10 10-17 15-28 15-19 0-34-15-34-33Zm38 0c8 0 14-8 24-18 7-7 13-11 20-11 16 0 29 13 29 29s-13 29-29 29c-7 0-13-4-20-11-10-10-16-18-24-18s-14 8-24 18c-7 7-13 11-20 11-16 0-29-13-29-29s13-29 29-29c7 0 13 4 20 11 10 10 16 18 24 18Z" fill="url(#g)" transform="translate(4 0) scale(.93)"/>
</svg>
